# xmcd CD database file
#
# Track frame offsets:
#	150
#	23053
#	48194
#	67177
#	92187
#	116064
#	137712
#	165208
#	190262
#	200543
#	213836
#	229369
#	248471
#	265069
#	278011
#	292986
#	306138
#	318487
#
# Disc length: 4435 seconds
#
# Revision: 0
# Processed by: cddbd v1.5.1PL2 Copyright (c) Steve Scherf et al.
# Submitted via: CDex 1.51
#
DISCID=fe115112
DTITLE=Jazz Lips - Hotter Than That - CD3
DYEAR=2005
DGENRE=Jazz
TTITLE0=Panama
TTITLE1=Loe Avery's Piece
TTITLE2=Maple Leaf Rag
TTITLE3=Corinne, Corinna
TTITLE4=Gettysburg March
TTITLE5=When Erastus Plays His Old Kazoo
TTITLE6=Mojo Blues
TTITLE7=New Orleans Function
TTITLE8=Dusty Rag
TTITLE9=Decatur Street Tutti
TTITLE10=Mississippi Blues
TTITLE11=Fly, Fly, Fly
TTITLE12=Coffin' Blues
TTITLE13=Clarinetzyk
TTITLE14=Yes, Yes, Yes
TTITLE15=Cornet Chop Suey
TTITLE16=New Orleans Blues
TTITLE17=Let's Sow A Wild Oat
EXTD=YEAR: 2005
EXTT0=
EXTT1=
EXTT2=
EXTT3=
EXTT4=
EXTT5=
EXTT6=
EXTT7=
EXTT8=
EXTT9=
EXTT10=
EXTT11=
EXTT12=
EXTT13=
EXTT14=
EXTT15=
EXTT16=
EXTT17=
PLAYORDER=
